<?xml version="1.0" encoding="iso-8859-1"?>
<!-- Generator: Adobe Illustrator 16.0.0, SVG Export Plug-In . SVG Version: 6.00 Build 0)  -->
<!DOCTYPE svg PUBLIC "-//W3C//DTD SVG 1.1//EN" "http://www.w3.org/Graphics/SVG/1.1/DTD/svg11.dtd">
<svg version="1.1" id="Capa_1" xmlns="http://www.w3.org/2000/svg" xmlns:xlink="http://www.w3.org/1999/xlink" x="0px" y="0px"
	 width="83.816px" height="83.816px" viewBox="0 0 83.816 83.816" style="enable-background:new 0 0 83.816 83.816;"
	 xml:space="preserve">
<g>
	<g>
		<rect x="34.984" y="28.139" width="11.5" height="24.5"/>
		<rect x="48.484" y="28.139" width="11.5" height="24.5"/>
		<path d="M65.734,34.639h-0.75c-0.553,0-1-0.447-1-1v-8.5c0-0.551-0.449-1-1-1h-44.5c-0.551,0-1,0.449-1,1v30.5
			c0,0.551,0.449,1,1,1h44.5c0.551,0,1-0.449,1-1v-8.5c0-0.551,0.447-1,1-1h0.75c0.551,0,1-0.449,1-1v-9.5
			C66.734,35.088,66.285,34.639,65.734,34.639z M61.984,53.639c0,0.553-0.449,1-1,1h-40.5c-0.552,0-1-0.447-1-1v-26.5
			c0-0.552,0.448-1,1-1h40.5c0.551,0,1,0.448,1,1V53.639z"/>
		<rect x="21.484" y="28.139" width="11.5" height="24.5"/>
		<path d="M41.908,0C18.762,0,0,18.763,0,41.909c0,23.146,18.763,41.907,41.908,41.907s41.909-18.762,41.909-41.907
			C83.816,18.763,65.054,0,41.908,0z M68.734,45.139c0,1.57-1.213,2.861-2.75,2.99v7.51c0,1.654-1.347,3-3,3h-44.5
			c-1.654,0-3-1.346-3-3v-30.5c0-1.653,1.346-3,3-3h44.5c1.653,0,3,1.347,3,3v7.511c1.537,0.127,2.75,1.42,2.75,2.989V45.139z"/>
	</g>
</g>
<g>
</g>
<g>
</g>
<g>
</g>
<g>
</g>
<g>
</g>
<g>
</g>
<g>
</g>
<g>
</g>
<g>
</g>
<g>
</g>
<g>
</g>
<g>
</g>
<g>
</g>
<g>
</g>
<g>
</g>
</svg>
