<?xml version="1.0" encoding="utf-8"?>
<!-- Uploaded to: SVG Repo, www.svgrepo.com, Generator: SVG Repo Mixer Tools -->
<svg fill="#000000" width="800px" height="800px" viewBox="0 0 32 32" version="1.1" xmlns="http://www.w3.org/2000/svg">
<title>phone-tty</title>
<path d="M14.286 23.477h-1.144c-0.69 0-1.25 0.56-1.25 1.25s0.56 1.25 1.25 1.25v0h1.144c0.69 0 1.25-0.56 1.25-1.25s-0.56-1.25-1.25-1.25v0zM6.393 24.727c-0-0.69-0.56-1.25-1.25-1.25h-1.143c-0.69 0-1.25 0.56-1.25 1.25s0.56 1.25 1.25 1.25v0h1.143c0.69-0 1.25-0.56 1.25-1.25v-0zM9.714 23.477h-1.143c-0.69 0-1.25 0.56-1.25 1.25s0.56 1.25 1.25 1.25v0h1.143c0.69 0 1.25-0.56 1.25-1.25s-0.56-1.25-1.25-1.25v0zM28 23.477h-1.143c-0.69 0-1.25 0.56-1.25 1.25s0.56 1.25 1.25 1.25v0h1.143c0.69 0 1.25-0.56 1.25-1.25s-0.56-1.25-1.25-1.25v0zM18.857 23.477h-1.144c-0.69 0-1.25 0.56-1.25 1.25s0.56 1.25 1.25 1.25v0h1.144c0.69 0 1.25-0.56 1.25-1.25s-0.56-1.25-1.25-1.25v0zM23.428 23.477h-1.143c-0.69 0-1.25 0.56-1.25 1.25s0.56 1.25 1.25 1.25v0h1.143c0.69 0 1.25-0.56 1.25-1.25s-0.56-1.25-1.25-1.25v0zM15.229 20.051c-0.69 0-1.25 0.56-1.25 1.25s0.56 1.25 1.25 1.25v0h1.144c0.69 0 1.25-0.56 1.25-1.25s-0.56-1.25-1.25-1.25v0zM6.087 20.051c-0.69 0-1.25 0.56-1.25 1.25s0.56 1.25 1.25 1.25v0h1.143c0.69 0 1.25-0.56 1.25-1.25s-0.56-1.25-1.25-1.25v0zM10.658 20.051c-0.69 0-1.25 0.56-1.25 1.25s0.56 1.25 1.25 1.25v0h1.143c0.69 0 1.25-0.56 1.25-1.25s-0.56-1.25-1.25-1.25v0zM19.801 20.051c-0.69 0-1.25 0.56-1.25 1.25s0.56 1.25 1.25 1.25v0h1.143c0.69 0 1.25-0.56 1.25-1.25s-0.56-1.25-1.25-1.25v0zM26.766 21.301c-0.001-0.69-0.56-1.249-1.25-1.25h-1.143c-0.69 0-1.25 0.56-1.25 1.25s0.56 1.25 1.25 1.25v0h1.143c0.69-0.001 1.249-0.56 1.25-1.25v-0zM18.857 16.62h-1.144c-0.688 0.003-1.245 0.562-1.245 1.25s0.557 1.248 1.245 1.25h1.144c0.688-0.003 1.245-0.562 1.245-1.25s-0.557-1.248-1.245-1.25h-0zM9.714 16.62h-1.143c-0.688 0.003-1.245 0.562-1.245 1.25s0.557 1.248 1.245 1.25h1.143c0.688-0.003 1.245-0.562 1.245-1.25s-0.557-1.248-1.245-1.25h-0zM14.286 16.62h-1.144c-0.688 0.003-1.245 0.562-1.245 1.25s0.557 1.248 1.245 1.25h1.144c0.688-0.003 1.245-0.562 1.245-1.25s-0.557-1.248-1.245-1.25h-0zM23.428 16.62h-1.143c-0.688 0.003-1.245 0.562-1.245 1.25s0.557 1.248 1.245 1.25h1.143c0.688-0.003 1.245-0.562 1.245-1.25s-0.557-1.248-1.245-1.25h-0zM26 27.322h-20c-0.69 0-1.25 0.56-1.25 1.25s0.56 1.25 1.25 1.25v0h20c0.69 0 1.25-0.56 1.25-1.25s-0.56-1.25-1.25-1.25v0zM29.576 7.794c-3.477-3.469-8.276-5.615-13.576-5.615s-10.099 2.145-13.576 5.615l0-0c-1.032 1.044-1.669 2.479-1.669 4.063s0.637 3.019 1.669 4.064l-0.001-0.001c0.222 0.229 0.466 0.433 0.731 0.61l0.016 0.010c0.457 0.336 0.992 0.597 1.57 0.753l0.034 0.008c0.090 0.023 0.193 0.036 0.299 0.036 0.277 0 0.533-0.089 0.741-0.24l-0.004 0.003 5.897-4.282c0.314-0.23 0.516-0.597 0.516-1.011 0-0 0-0 0-0v0c-0.001-0.688-0.127-1.346-0.356-1.953l0.013 0.038c1.225-0.461 2.641-0.728 4.119-0.728s2.894 0.267 4.202 0.755l-0.083-0.027c-0.217 0.569-0.343 1.227-0.344 1.915v0c0 0 0 0 0 0 0 0.414 0.202 0.782 0.512 1.009l0.003 0.002 5.898 4.282c0.203 0.149 0.458 0.238 0.734 0.238 0 0 0 0 0.001 0h-0c0.108-0 0.212-0.014 0.312-0.039l-0.009 0.002c0.584-0.153 1.095-0.399 1.545-0.723l-0.014 0.009c0.311-0.199 0.58-0.421 0.821-0.671l0.001-0.001 0.002-0.001c1.029-1.043 1.664-2.476 1.664-4.057 0-1.584-0.638-3.020-1.67-4.064l0 0zM27.803 14.158c-0.127 0.13-0.268 0.246-0.42 0.345l-0.009 0.006c-0.074 0.054-0.161 0.109-0.251 0.16l-0.015 0.008-4.771-3.465c0.099-0.468 0.285-0.881 0.542-1.239l-0.007 0.010c0.14-0.199 0.224-0.447 0.224-0.715 0-0.492-0.283-0.917-0.695-1.122l-0.007-0.003c-1.866-0.935-4.066-1.482-6.393-1.482s-4.527 0.547-6.477 1.52l0.084-0.038c-0.419 0.207-0.703 0.632-0.703 1.124 0 0.269 0.085 0.517 0.229 0.721l-0.003-0.004c0.25 0.349 0.436 0.761 0.531 1.207l0.004 0.022-4.771 3.464c-0.133-0.075-0.242-0.146-0.348-0.221l0.012 0.008c-0.135-0.092-0.253-0.192-0.36-0.303l-0.001-0.001c-0.585-0.591-0.947-1.404-0.947-2.302 0-0.894 0.359-1.705 0.94-2.296l-0 0c3.024-3.017 7.199-4.883 11.809-4.883s8.784 1.866 11.809 4.883l-0-0c0.581 0.59 0.94 1.401 0.94 2.295 0 0.897-0.361 1.71-0.947 2.302l0-0z"></path>
</svg>